<?xml version="1.0" standalone="no"?>
<!DOCTYPE svg PUBLIC "-//W3C//DTD SVG 20010904//EN"
 "http://www.w3.org/TR/2001/REC-SVG-20010904/DTD/svg10.dtd">
<svg version="1.0" xmlns="http://www.w3.org/2000/svg"
 width="300.000000pt" height="228.000000pt" viewBox="0 0 300.000000 228.000000"
 preserveAspectRatio="xMidYMid meet">
<metadata>
Created by potrace 1.10, written by Peter Selinger 2001-2011
</metadata>
<g transform="translate(0.000000,228.000000) scale(0.100000,-0.100000)"
fill="#000000" stroke="none">
<path d="M1787 2053 c-8 -17 -1 -48 11 -45 6 1 12 -3 12 -8 0 -8 6 -8 17 -1
19 10 24 42 8 53 -13 10 -43 10 -48 1z"/>
<path d="M1060 2037 c0 -8 7 -14 15 -14 8 0 15 6 15 14 0 7 -7 13 -15 13 -8 0
-15 -6 -15 -13z"/>
<path d="M1420 2031 c-5 -11 -18 -27 -27 -36 -16 -16 -15 -19 18 -46 19 -16
36 -29 39 -29 3 0 16 16 29 36 24 34 24 37 7 46 -10 6 -27 19 -37 29 -18 18
-19 18 -29 0z m37 -58 c-24 -25 -39 -6 -28 35 1 1 11 -2 22 -9 19 -10 20 -13
6 -26z"/>
<path d="M2295 2000 c-8 -25 1 -40 25 -40 17 0 18 4 10 28 -9 25 -9 26 5 8 8
-11 15 -15 15 -10 0 14 -22 34 -36 34 -7 0 -15 -9 -19 -20z"/>
<path d="M598 1925 c-3 -14 0 -26 8 -29 8 -3 14 -1 14 5 0 6 5 7 10 4 6 -3 10
4 10 17 0 33 -36 35 -42 3z"/>
<path d="M812 1903 c-15 -16 -4 -37 21 -39 20 -2 23 22 4 40 -10 11 -15 10
-25 -1z"/>
<path d="M1103 1844 c-7 -7 -13 -23 -14 -36 -1 -23 -1 -23 -10 2 l-8 25 2 -25
c1 -14 4 -24 7 -22 3 2 18 -1 33 -7 18 -7 26 -7 22 -1 -3 6 -1 10 5 10 6 0 10
11 8 25 -2 14 -7 25 -12 24 -5 0 -12 4 -15 9 -4 6 -11 4 -18 -4z m30 -24 c-7
-26 -19 -34 -29 -19 -4 7 1 18 11 26 24 17 24 17 18 -7z"/>
<path d="M1714 1837 c1 -11 12 -22 23 -23 15 -3 20 2 19 19 -1 15 -8 22 -23
23 -17 1 -22 -4 -19 -19z"/>
<path d="M402 1788 c-17 -17 -15 -54 4 -72 22 -22 37 -20 64 9 22 23 22 25 6
50 -18 27 -54 33 -74 13z m53 -38 c0 -22 -29 -18 -33 3 -3 14 1 18 15 15 10
-2 18 -10 18 -18z"/>
<path d="M2013 1776 c-26 -22 -27 -26 -14 -50 20 -37 48 -42 77 -15 30 28 30
40 1 67 -29 27 -30 27 -64 -2z m55 -29 c4 -20 -25 -34 -39 -20 -14 14 1 45 20
41 9 -2 17 -11 19 -21z"/>
<path d="M1427 1701 c28 -4 77 -4 110 0 43 4 30 6 -52 5 -74 0 -93 -1 -58 -5z"/>
<path d="M2499 1688 c-8 -15 -8 -26 2 -44 25 -47 91 -16 73 34 -12 35 -59 41
-75 10z m48 -34 c-9 -9 -28 6 -21 18 4 6 10 6 17 -1 6 -6 8 -13 4 -17z"/>
<path d="M1320 1696 c0 -2 11 -6 25 -8 13 -3 22 -1 19 3 -5 9 -44 13 -44 5z"/>
<path d="M1600 1690 c-11 -8 -7 -9 15 -4 37 8 45 14 19 14 -10 0 -26 -5 -34
-10z"/>
<path d="M1226 1665 c-32 -14 -63 -22 -69 -18 -6 4 -7 1 -2 -7 6 -10 4 -12 -9
-7 -11 5 -15 3 -10 -4 4 -7 1 -10 -7 -7 -18 7 -51 -10 -44 -22 4 -6 27 1 53
14 26 13 64 29 85 36 50 16 96 40 77 40 -8 -1 -41 -12 -74 -25z"/>
<path d="M1660 1686 c0 -2 7 -6 15 -10 8 -3 15 -1 15 4 0 6 -7 10 -15 10 -8 0
-15 -2 -15 -4z"/>
<path d="M1700 1671 c0 -6 12 -14 28 -17 15 -4 52 -19 82 -33 30 -14 62 -26
71 -27 9 -1 25 -10 36 -20 11 -10 38 -32 59 -49 21 -16 58 -49 82 -72 24 -24
47 -43 53 -43 6 0 8 -3 6 -7 -6 -11 55 -95 73 -101 14 -5 -25 57 -45 70 -5 4
-10 11 -10 16 0 5 -30 39 -67 76 -38 36 -68 63 -68 59 0 -4 -16 8 -35 27 -19
19 -35 31 -35 27 0 -3 -12 5 -26 18 -15 14 -32 21 -41 18 -11 -4 -14 -2 -9 5
5 8 1 10 -10 5 -12 -4 -15 -3 -10 5 5 8 1 10 -10 5 -13 -5 -15 -3 -9 7 5 8 3
11 -6 8 -8 -3 -25 0 -39 7 -42 21 -70 27 -70 16z"/>
<path d="M1430 1657 c-18 -5 -42 -6 -53 -3 -10 2 -16 2 -12 -2 4 -4 55 -7 113
-8 59 0 121 -4 137 -8 26 -6 27 -5 7 4 -37 16 -155 27 -192 17z"/>
<path d="M743 1625 c-9 -10 -9 -17 2 -31 11 -15 15 -16 29 -5 21 17 20 28 -1
40 -12 6 -22 5 -30 -4z"/>
<path d="M1287 1629 c7 -7 15 -10 18 -7 3 3 -2 9 -12 12 -14 6 -15 5 -6 -5z"/>
<path d="M1338 1633 c7 -3 16 -2 19 1 4 3 -2 6 -13 5 -11 0 -14 -3 -6 -6z"/>
<path d="M1670 1630 c-9 -6 -10 -10 -3 -10 6 0 15 5 18 10 8 12 4 12 -15 0z"/>
<path d="M1250 1619 c0 -6 -10 -8 -22 -4 -19 5 -20 4 -6 -5 10 -6 25 -7 39 -2
19 7 20 10 6 15 -10 4 -17 2 -17 -4z"/>
<path d="M1709 1609 c14 -5 28 -6 32 -2 4 4 -6 9 -24 10 -30 1 -31 1 -8 -8z"/>
<path d="M1121 1573 c-39 -20 -68 -40 -65 -44 3 -5 -4 -9 -14 -9 -11 0 -53
-33 -95 -72 -105 -102 -184 -219 -170 -254 4 -12 3 -15 -5 -10 -8 5 -10 1 -5
-10 5 -13 10 -10 23 17 10 18 15 40 12 48 -4 10 -1 12 8 6 9 -5 11 -4 6 3 -4
7 -2 12 3 12 6 0 11 3 10 8 -2 15 14 52 22 52 5 0 9 7 9 16 0 8 4 13 9 10 9
-6 34 18 26 25 -6 7 95 104 108 104 7 1 11 6 10 13 -2 7 2 13 7 13 6 1 15 2
21 3 6 0 16 8 23 16 15 19 94 62 104 56 4 -2 18 1 31 8 18 10 20 14 8 19 -8 3
-47 -10 -86 -30z"/>
<path d="M1755 1600 c-4 -6 1 -7 11 -3 12 4 15 3 10 -5 -4 -7 -3 -12 3 -12 17
0 21 18 5 24 -21 8 -22 8 -29 -4z"/>
<path d="M1060 1591 c0 -6 -6 -11 -13 -11 -8 0 -24 -11 -37 -25 -12 -13 -25
-23 -29 -22 -3 1 -18 -10 -33 -23 -14 -14 -40 -35 -57 -48 -17 -13 -29 -27
-26 -32 3 -5 -5 -16 -17 -24 -12 -9 -18 -16 -13 -16 5 0 -1 -7 -13 -16 -12 -8
-22 -22 -22 -30 0 -8 -4 -14 -10 -14 -5 0 -7 -7 -3 -15 3 -9 2 -15 -3 -13 -5
2 -10 -1 -11 -6 0 -5 -8 -13 -17 -18 -9 -5 -13 -15 -9 -25 5 -12 3 -14 -7 -8
-8 5 -11 4 -7 -2 3 -5 -5 -33 -19 -62 -37 -78 -24 -72 16 7 46 91 118 197 172
253 58 60 146 129 164 129 16 0 19 16 4 25 -5 3 -10 1 -10 -4z"/>
<path d="M1805 1580 c-4 -6 -3 -9 2 -8 12 4 73 -26 73 -35 0 -5 5 -5 11 -1 7
4 -3 16 -27 30 -44 27 -50 28 -59 14z"/>
<path d="M1920 1508 c12 -10 28 -18 36 -18 8 0 13 -5 12 -12 -2 -7 2 -12 8
-13 15 0 100 -87 96 -98 -1 -5 2 -6 7 -3 8 5 23 -17 25 -38 1 -5 12 -16 26
-25 l24 -16 -19 34 c-23 40 -168 193 -181 190 -19 -3 -35 1 -30 9 3 5 -2 9
-11 9 -12 0 -11 -5 7 -19z"/>
<path d="M1399 1501 c-45 -9 -105 -46 -126 -77 -8 -13 -19 -21 -24 -18 -5 3
-8 2 -7 -3 1 -4 -5 -30 -14 -58 -9 -27 -19 -81 -23 -120 -4 -40 -13 -77 -22
-87 -20 -22 -10 -113 19 -178 11 -25 26 -64 33 -87 7 -23 22 -55 34 -72 17
-23 21 -42 19 -77 l-3 -47 -105 -41 c-200 -78 -240 -117 -240 -237 0 -60 2
-67 33 -96 171 -160 446 -224 707 -163 99 23 154 47 243 104 89 58 100 75 99
156 0 38 -1 74 -1 80 -1 5 -16 26 -33 46 -31 35 -103 74 -260 142 -47 20 -48
22 -48 64 1 28 9 57 25 83 14 22 25 46 25 54 0 8 13 42 29 75 37 78 50 170 27
195 -10 11 -20 50 -26 102 -16 138 -69 219 -167 253 -43 14 -140 18 -194 7z
m218 -83 c57 -37 81 -93 89 -203 5 -61 12 -93 22 -101 20 -14 8 -92 -23 -154
-12 -25 -26 -59 -29 -76 -9 -39 -56 -84 -123 -118 -64 -32 -71 -32 -136 -1
-66 31 -114 75 -122 112 -4 15 -20 58 -36 94 -31 70 -37 130 -15 148 8 7 15
43 19 96 12 175 74 237 233 232 68 -2 87 -6 121 -29z m144 -295 c13 -16 12
-17 -3 -4 -17 13 -22 21 -14 21 2 0 10 -8 17 -17z m-429 -376 c-17 -19 -17
-18 -23 15 -3 18 -9 40 -14 48 -4 8 6 2 23 -14 31 -28 31 -30 14 -49z m340 61
c-6 -7 -12 -26 -14 -41 -3 -26 -4 -27 -23 -13 -20 15 -19 16 10 40 33 28 43
33 27 14z m-186 -121 c26 0 59 9 89 26 26 15 49 27 51 27 2 0 4 -20 4 -45 0
-46 0 -46 -52 -70 -72 -33 -120 -32 -185 5 -50 29 -53 33 -53 70 l0 40 53 -26
c31 -16 68 -27 93 -27z m-143 -56 l22 -24 -25 16 c-13 9 -33 17 -44 17 -18 0
-18 1 -3 18 10 10 18 29 19 43 1 15 3 11 5 -11 3 -19 14 -46 26 -59z m337 29
c8 -5 12 -11 10 -12 -43 -33 -92 -49 -55 -18 8 7 15 19 15 26 0 16 9 17 30 4z
m45 -20 c3 -5 2 -10 -4 -10 -5 0 -13 5 -16 10 -3 6 -2 10 4 10 5 0 13 -4 16
-10z m-485 -20 c-20 -13 -33 -13 -25 0 3 6 14 10 23 10 15 0 15 -2 2 -10z
m102 -25 c16 -14 55 -32 85 -41 52 -15 61 -15 117 0 34 10 80 29 104 42 l43
26 102 -43 c67 -28 115 -55 140 -80 34 -34 37 -41 37 -92 0 -52 -2 -58 -37
-86 -53 -43 -155 -95 -243 -123 -96 -29 -298 -33 -396 -6 -85 23 -184 72 -244
119 -49 39 -50 41 -50 93 0 30 3 62 6 71 11 26 84 70 169 100 44 15 87 31 95
36 25 14 41 10 72 -16z m-183 1 c-2 -2 -15 -9 -29 -15 -24 -11 -24 -11 -6 3
16 13 49 24 35 12z m700 -12 c13 -12 -8 -10 -29 2 l-25 15 25 -7 c14 -3 27 -8
29 -10z m-434 -4 c3 -6 -1 -7 -9 -4 -18 7 -21 14 -7 14 6 0 13 -4 16 -10z
m490 -28 c-3 -3 -11 0 -18 7 -9 10 -8 11 6 5 10 -3 15 -9 12 -12z m-850 0 c-6
-4 -26 -21 -45 -37 -29 -25 -32 -26 -15 -5 25 31 47 49 60 50 6 0 6 -3 0 -8z
m906 -49 c13 -16 12 -17 -3 -4 -10 7 -18 15 -18 17 0 8 8 3 21 -13z m26 -65
c-3 -8 -6 -5 -6 6 -1 11 2 17 5 13 3 -3 4 -12 1 -19z m-6 -95 c-10 -19 -51
-57 -51 -47 0 5 52 63 58 64 1 0 -2 -8 -7 -17z m-985 -24 c19 -22 19 -22 -3
-8 -13 8 -23 17 -23 21 0 12 6 9 26 -13z m94 -76 c0 -2 -8 1 -17 6 -28 17 -53
38 -53 45 0 4 16 -5 35 -20 19 -14 35 -28 35 -31z m765 -3 c-3 -5 -12 -10 -18
-10 -7 0 -6 4 3 10 19 12 23 12 15 0z m-705 -26 c0 -2 -9 0 -20 6 -11 6 -20
13 -20 16 0 2 9 0 20 -6 11 -6 20 -13 20 -16z m107 -40 c-5 -5 -69 16 -82 27
-5 5 12 2 38 -7 27 -9 46 -18 44 -20z m523 32 c0 -2 -7 -7 -16 -10 -8 -3 -12
-2 -9 4 6 10 25 14 25 6z m-65 -26 c-3 -5 -12 -10 -18 -10 -7 0 -6 4 3 10 19
12 23 12 15 0z m-375 -20 l25 -8 -25 0 c-14 0 -36 4 -50 8 l-25 8 25 0 c14 0
36 -4 50 -8z m250 -10 c-8 -5 -42 -9 -75 -8 l-60 1 65 7 c36 4 70 7 75 8 6 1
3 -3 -5 -8z m-183 -6 c-3 -3 -12 -4 -19 -1 -8 3 -5 6 6 6 11 1 17 -2 13 -5z"/>
<path d="M448 1369 c-23 -26 -24 -30 -11 -49 8 -11 19 -18 24 -14 6 3 13 -3
16 -15 5 -19 8 -17 39 16 l35 37 -28 26 c-36 33 -43 33 -75 -1z m52 -19 c11
-7 12 -12 3 -21 -16 -16 -44 -4 -37 16 7 17 13 18 34 5z"/>
<path d="M1204 1384 c-18 -14 -18 -15 4 -4 12 6 22 13 22 15 0 8 -5 6 -26 -11z"/>
<path d="M1772 1374 c10 -10 20 -16 22 -13 3 3 -5 11 -17 18 -21 13 -21 12 -5
-5z"/>
<path d="M1155 1350 c-10 -11 -21 -18 -25 -15 -4 2 -7 -3 -7 -11 0 -10 9 -6
29 13 15 15 28 28 28 30 0 7 -8 2 -25 -17z"/>
<path d="M1806 1351 c-3 -5 1 -11 9 -14 9 -4 12 -1 8 9 -6 16 -10 17 -17 5z"/>
<path d="M2396 1335 c4 -8 -1 -17 -10 -21 -9 -3 -16 -11 -16 -16 0 -6 7 -8 15
-4 13 5 20 -5 16 -26 -2 -14 17 -8 23 7 3 8 12 12 21 9 17 -7 21 11 5 21 -8 5
-7 12 2 23 11 13 10 15 -9 10 -13 -4 -26 -2 -29 3 -9 15 -24 10 -18 -6z"/>
<path d="M1852 1323 c8 -10 24 -28 34 -41 10 -13 28 -28 39 -34 11 -6 -2 13
-30 41 -47 49 -75 70 -43 34z"/>
<path d="M1079 1293 l-24 -28 28 24 c25 23 32 31 24 31 -2 0 -14 -12 -28 -27z"/>
<path d="M2203 1275 c0 -8 4 -15 9 -15 5 0 6 -5 2 -12 -4 -7 -3 -8 4 -4 9 5 9
13 2 27 -13 23 -17 24 -17 4z"/>
<path d="M2654 1272 c19 -22 19 -22 -2 -22 -11 0 -23 8 -25 18 -4 16 -5 16 -6
-1 -1 -24 24 -48 42 -41 16 6 30 54 16 54 -4 0 -16 3 -26 7 -17 6 -17 5 1 -15z"/>
<path d="M2146 1268 c4 -7 18 -30 31 -50 13 -21 20 -45 17 -55 -5 -15 -4 -16
6 -3 10 13 11 11 7 -8 -3 -14 -1 -20 6 -15 6 4 8 -2 5 -15 -4 -14 -2 -20 4
-16 6 4 8 -2 4 -17 -6 -20 -5 -21 4 -7 8 12 5 31 -11 75 -12 32 -27 65 -34 73
-6 8 -15 23 -18 33 -4 9 -11 17 -17 17 -6 0 -8 -6 -4 -12z"/>
<path d="M1040 1240 c-8 -5 -12 -12 -9 -15 4 -3 12 1 19 10 14 17 11 19 -10 5z"/>
<path d="M2226 1231 c-4 -5 2 -29 13 -53 10 -24 22 -59 26 -78 7 -35 35 -84
35 -64 0 6 -9 37 -20 69 -11 31 -17 62 -13 68 3 5 1 7 -4 4 -13 -8 -26 20 -16
35 4 7 1 8 -7 3 -10 -6 -12 -4 -7 8 7 18 2 23 -7 8z"/>
<path d="M995 1189 c-4 -6 -5 -12 -2 -15 2 -3 7 2 10 11 7 17 1 20 -8 4z"/>
<path d="M1968 1174 c12 -17 18 -35 14 -39 -4 -5 -1 -5 6 -1 14 8 3 35 -25 57
-13 10 -12 6 5 -17z"/>
<path d="M750 1161 c0 -6 4 -13 10 -16 6 -3 7 1 4 9 -7 18 -14 21 -14 7z"/>
<path d="M946 1103 c-4 -9 -3 -20 1 -24 4 -4 9 3 9 17 2 28 -1 31 -10 7z"/>
<path d="M342 1099 c-12 -5 -27 -21 -33 -36 -8 -22 -6 -32 9 -52 26 -35 68
-35 94 0 19 24 19 28 4 56 -17 34 -41 44 -74 32z m56 -53 c4 -20 -13 -36 -41
-36 -20 0 -32 23 -23 46 8 22 60 15 64 -10z"/>
<path d="M680 1105 c0 -5 5 -17 10 -25 5 -8 10 -10 10 -5 0 6 -5 17 -10 25 -5
8 -10 11 -10 5z"/>
<path d="M726 1078 c-22 -112 -27 -162 -22 -238 5 -88 24 -180 38 -180 10 0
11 -2 -9 61 -22 71 -22 233 0 314 9 33 13 63 8 68 -5 5 -11 -6 -15 -25z"/>
<path d="M2016 1090 c3 -14 11 -32 16 -40 6 -10 7 -7 2 10 -3 14 -11 32 -16
40 -6 10 -7 7 -2 -10z"/>
<path d="M671 1070 c0 -8 4 -24 9 -35 5 -13 9 -14 9 -5 0 8 -4 24 -9 35 -5 13
-9 14 -9 5z"/>
<path d="M936 1057 c3 -10 9 -15 12 -12 3 3 0 11 -7 18 -10 9 -11 8 -5 -6z"/>
<path d="M2236 1055 c-9 -26 -7 -32 5 -12 6 10 9 21 6 23 -2 3 -7 -2 -11 -11z"/>
<path d="M662 1015 c0 -11 4 -31 8 -45 6 -20 8 -21 8 -5 0 11 -4 31 -8 45 -6
20 -8 21 -8 5z"/>
<path d="M926 1015 c-3 -9 -6 -22 -5 -28 0 -7 5 -1 10 12 5 13 8 26 5 28 -2 2
-6 -3 -10 -12z"/>
<path d="M2041 1014 c0 -11 3 -14 6 -6 3 7 2 16 -1 19 -3 4 -6 -2 -5 -13z"/>
<path d="M2245 1010 c-3 -11 -3 -30 0 -41 10 -30 7 -145 -5 -201 -5 -27 -6
-57 -2 -69 5 -14 8 -2 9 37 1 31 5 60 10 63 11 8 10 171 0 171 -5 0 -6 14 -2
30 7 34 0 41 -10 10z"/>
<path d="M2302 985 c0 -16 2 -22 5 -12 2 9 2 23 0 30 -3 6 -5 -1 -5 -18z"/>
<path d="M2046 958 c-7 -29 -6 -126 2 -156 4 -13 7 22 7 77 0 56 -1 101 -1
101 -1 0 -4 -10 -8 -22z"/>
<path d="M654 880 c0 -52 1 -74 3 -47 2 26 2 68 0 95 -2 26 -3 4 -3 -48z"/>
<path d="M2533 958 c-13 -22 -12 -36 7 -53 20 -18 47 -11 55 16 12 37 -42 68
-62 37z"/>
<path d="M913 885 c0 -44 2 -61 4 -37 2 23 2 59 0 80 -2 20 -4 1 -4 -43z"/>
<path d="M2290 930 c0 -11 2 -20 4 -20 2 0 6 9 9 20 3 11 1 20 -4 20 -5 0 -9
-9 -9 -20z"/>
<path d="M2313 880 c0 -30 2 -43 4 -27 2 15 2 39 0 55 -2 15 -4 2 -4 -28z"/>
<path d="M2296 801 c5 -31 2 -46 -7 -52 -11 -7 -11 -9 -1 -9 20 0 25 26 13 67
l-10 38 5 -44z"/>
<path d="M666 774 c-4 -20 -5 -38 -3 -40 3 -3 8 11 11 32 4 20 5 38 3 40 -3 3
-8 -11 -11 -32z"/>
<path d="M925 771 c5 -34 12 -49 18 -40 2 2 -3 20 -10 39 l-14 35 6 -34z"/>
<path d="M2041 754 c0 -11 3 -14 6 -6 3 7 2 16 -1 19 -3 4 -6 -2 -5 -13z"/>
<path d="M681 733 c-1 -6 -4 -20 -7 -30 -5 -17 -5 -17 6 0 6 10 9 23 6 30 -3
9 -5 9 -5 0z"/>
<path d="M2021 699 c-6 -18 -9 -34 -7 -36 2 -2 9 10 15 28 6 18 9 34 7 36 -2
2 -9 -10 -15 -28z"/>
<path d="M2265 658 c-14 -40 -30 -80 -35 -90 -6 -11 -5 -18 5 -22 10 -3 12 0
8 11 -4 11 -3 14 6 9 8 -5 11 -3 10 5 -2 8 7 45 19 83 30 93 21 95 -13 4z"/>
<path d="M945 689 c-4 -6 -5 -12 -2 -15 2 -3 7 2 10 11 7 17 1 20 -8 4z"/>
<path d="M2220 681 c0 -6 4 -13 10 -16 6 -3 7 1 4 9 -7 18 -14 21 -14 7z"/>
<path d="M681 664 c0 -11 3 -14 6 -6 3 7 2 16 -1 19 -3 4 -6 -2 -5 -13z"/>
<path d="M696 644 c-3 -8 8 -42 24 -76 16 -33 28 -64 25 -68 -3 -5 4 -14 15
-20 11 -6 17 -16 14 -22 -4 -6 -3 -8 4 -5 6 5 -2 32 -24 76 -19 38 -34 74 -34
80 0 6 -5 11 -11 11 -6 0 -8 9 -4 20 7 24 0 27 -9 4z"/>
<path d="M2217 640 c4 -16 3 -21 -5 -16 -8 5 -10 1 -5 -10 5 -13 3 -15 -7 -9
-10 6 -12 4 -7 -8 3 -9 -9 -39 -28 -71 -18 -30 -30 -57 -27 -60 3 -3 0 -6 -6
-6 -7 0 -11 -6 -9 -12 1 -7 -3 -12 -10 -11 -6 1 -14 -4 -17 -13 -3 -8 -1 -12
4 -9 5 3 15 -3 22 -15 15 -23 38 -27 38 -6 0 7 9 25 20 39 13 16 16 28 10 32
-5 3 -10 3 -10 -2 0 -4 -9 -19 -19 -32 -24 -31 -47 -20 -26 13 8 12 12 26 8
29 -3 4 -2 7 4 7 26 0 92 155 75 172 -8 8 -9 4 -5 -12z"/>
<path d="M410 603 c0 -29 3 -33 28 -33 23 0 27 4 27 29 0 24 -5 30 -27 34 -26
3 -28 1 -28 -30z m40 -14 c0 -5 -7 -9 -15 -9 -9 0 -12 6 -9 15 6 15 24 11 24
-6z"/>
<path d="M2448 623 c-35 -14 -51 -33 -28 -33 5 0 6 -7 3 -17 -5 -11 -3 -14 6
-8 10 5 11 2 7 -11 -4 -15 -1 -19 18 -19 13 0 22 4 18 9 -3 5 4 7 14 4 29 -7
46 15 29 38 -13 19 -15 26 -15 44 0 13 -7 12 -52 -7z m46 -29 c8 -21 -1 -34
-24 -34 -22 0 -34 15 -26 35 7 20 42 19 50 -1z"/>
<path d="M1985 619 c-4 -6 -5 -12 -2 -15 2 -3 7 2 10 11 7 17 1 20 -8 4z"/>
<path d="M755 609 c-4 -6 -5 -12 -2 -15 2 -3 7 2 10 11 7 17 1 20 -8 4z"/>
<path d="M767 586 c-5 -11 -3 -15 4 -10 7 4 10 1 7 -7 -3 -8 10 -45 30 -82 35
-67 37 -103 3 -58 -12 16 -21 20 -25 12 -4 -6 -2 -11 3 -11 6 0 11 -6 11 -14
0 -7 6 -19 13 -25 11 -8 19 -6 36 8 24 21 20 43 -13 70 -9 8 -13 17 -10 22 3
5 0 9 -6 9 -6 0 -8 5 -4 12 5 7 3 8 -6 3 -9 -6 -12 -4 -8 6 3 8 -2 30 -12 48
-13 27 -18 30 -23 17z"/>
<path d="M985 590 c3 -5 8 -10 11 -10 2 0 4 5 4 10 0 6 -5 10 -11 10 -5 0 -7
-4 -4 -10z"/>
<path d="M2214 512 c4 -7 3 -12 -2 -12 -5 0 -9 -7 -9 -15 0 -20 4 -19 17 4 7
14 7 22 -2 27 -7 4 -8 3 -4 -4z"/>
</g>
</svg>
